<svg id="Layer_1" data-name="Layer 1" xmlns="http://www.w3.org/2000/svg" viewBox="0 0 160 160"><title>bingo</title><path d="M125,123.5H35l1.5,1.5V35L35,36.5h90L123.5,35v90a1.5,1.5,0,0,0,3,0V35a1.52,1.52,0,0,0-1.5-1.5H35A1.52,1.52,0,0,0,33.5,35v90a1.52,1.52,0,0,0,1.5,1.5h90A1.5,1.5,0,0,0,125,123.5Z"/><path d="M35,65.5h90a1.5,1.5,0,0,0,0-3H35a1.5,1.5,0,0,0,0,3Z"/><path d="M35,95.5h90a1.5,1.5,0,0,0,0-3H35a1.5,1.5,0,0,0,0,3Z"/><path d="M65.5,125V35a1.5,1.5,0,0,0-3,0v90a1.5,1.5,0,0,0,3,0Z"/><path d="M95.5,125V35a1.5,1.5,0,0,0-3,0v90a1.5,1.5,0,0,0,3,0Z"/><polygon points="80 71.86 82.02 78.08 88.56 78.08 83.27 81.92 85.29 88.14 80 84.3 74.71 88.14 76.73 81.92 71.44 78.08 77.98 78.08 80 71.86"/></svg>