<svg id="Layer_1" data-name="Layer 1" xmlns="http://www.w3.org/2000/svg" viewBox="0 0 160 160"><title>karaoke</title><path d="M118.4,78.43A28.79,28.79,0,0,1,81.65,41.68H78.76A62.78,62.78,0,0,0,118.4,81.32c1.83.62,2.62-2.28.8-2.89A59.56,59.56,0,0,1,81.65,40.88a1.51,1.51,0,0,0-2.89,0C70.08,66,94.12,90,119.2,81.32,121,80.69,120.23,77.79,118.4,78.43Z"/><path d="M128.46,71.92c-1.78,1.71-5.53-.15-7.64-.87a51,51,0,0,1-25.15-18.8,46.64,46.64,0,0,1-8-17.49c-.64-3.33,1.86-4.75,4.54-6.56a28.52,28.52,0,0,1,40.37,8.71c6.91,11.29,4.82,25.58-4.17,35-1.33,1.4.79,3.52,2.12,2.12,16.2-17,9.41-46.18-13.83-52.63A31.76,31.76,0,0,0,86.56,29c-1.19,1.14-2.21,1.93-2.37,3.53-.28,2.86,1.73,7.11,2.75,9.73a54.28,54.28,0,0,0,9.91,16.29,53.77,53.77,0,0,0,17.72,13.21,54.32,54.32,0,0,0,9.94,3.48c3.17.77,3.8,1,6.07-1.2C132,72.71,129.85,70.59,128.46,71.92Z"/><path d="M98.74,87.23,75,108.22c-10,8.86-19.74,18.83-30.46,26.88-1.35,1-1.69,2-3.73,1s-4.27-4.27-6-6l-8.47-8.47c-1.38-1.38-3.4-2.64-2.46-4.81.48-1.11,2-2.3,2.82-3.2l5.39-6.1L47.59,90,72.84,61.34l-2.51-.66A39.72,39.72,0,0,0,99.4,89.74c1.87.47,2.67-2.42.8-2.89a36.73,36.73,0,0,1-27-27,1.51,1.51,0,0,0-2.51-.66L46.79,86.34,30.23,105.1c-2.83,3.21-6.09,6.31-8.62,9.77-3.66,5,3.07,9.33,6.25,12.51l8.71,8.71c1.57,1.57,3.15,3.69,5.6,3.6,3.28-.11,6.8-4.57,9-6.53l17.32-15.29,32.33-28.53C102.31,88.07,100.18,86,98.74,87.23Z"/></svg>