<svg id="Layer_1" data-name="Layer 1" xmlns="http://www.w3.org/2000/svg" viewBox="0 0 160 160"><defs><style>.cls-1{fill:none;stroke:#000;stroke-miterlimit:10;stroke-width:3px;}</style></defs><title>parties</title><path d="M116,114.52H44l1.5,1.5q0-25.19,0-50.38L44,67.14h72l-1.5-1.5V116a1.5,1.5,0,0,0,3,0V65.64a1.52,1.52,0,0,0-1.5-1.5H44a1.52,1.52,0,0,0-1.5,1.5q0,25.19,0,50.38a1.52,1.52,0,0,0,1.5,1.5h72A1.5,1.5,0,0,0,116,114.52Z"/><path class="cls-1" d="M44,82.72c9,0,9,10,18,10s9-10,18-10,9,10,18,10,9-10,18-10"/><path d="M83,59.41H77l1.5,1.5V41L77,42.5h6L81.5,41V60.91a1.5,1.5,0,0,0,3,0V41A1.52,1.52,0,0,0,83,39.5H77A1.52,1.52,0,0,0,75.5,41V60.91a1.52,1.52,0,0,0,1.5,1.5h6A1.5,1.5,0,0,0,83,59.41Z"/><path d="M83,31.46c-.06,2.68-1.09,3.19-3.74,2.94S76.52,31.06,77.75,29a32.11,32.11,0,0,0,2.52-4.12c.46-1.12.86-2.27,1.21-3.44H78.59a28.7,28.7,0,0,0,1.28,3.91c.93,2.22,2.94,3.63,3.13,6.15.14,1.91,3.14,1.93,3,0-.19-2.7-1.31-4-2.75-6.11a15.3,15.3,0,0,1-1.76-4.75,1.51,1.51,0,0,0-2.89,0,31.07,31.07,0,0,1-1.14,3.25c-.69,1.61-1.94,2.76-2.66,4.34-1,2.18-1.24,5.79.47,7.74s5.06,1.8,7.24,1.28c2.86-.69,3.44-3.1,3.5-5.74C86,29.53,83,29.53,83,31.46Z"/></svg>