<svg id="Layer_1" data-name="Layer 1" xmlns="http://www.w3.org/2000/svg" viewBox="0 0 160 160"><title>weddings</title><path d="M73.1,121.06C62,109.78,58.3,92.91,64.66,78.23A38.79,38.79,0,0,1,97.2,55.11c30.17-2.08,51.38,31.31,36.15,57.64-8.7,15-26.27,22-43,18-1.88-.44-2.68,2.45-.8,2.89,15.84,3.75,32.58-1.39,42.84-14.24A41.85,41.85,0,0,0,138,76.88c-13.26-30.32-56.61-33-73.63-4.69-9.89,16.46-6.74,37.47,6.59,51,1.36,1.38,3.48-.74,2.12-2.12Z"/><path d="M86.94,66C98,77.29,101.69,94.14,95.34,108.8A38.79,38.79,0,0,1,62.8,131.92C32.62,134,11.42,100.61,26.65,74.28c8.69-15,26.23-22,43-18.05,1.88.44,2.68-2.45.8-2.89-15.82-3.72-32.54,1.42-42.79,14.25A41.85,41.85,0,0,0,22,110.15c13.26,30.32,56.61,33,73.63,4.69,9.88-16.44,6.75-37.42-6.55-50.95-1.36-1.38-3.48.74-2.12,2.12Z"/><path d="M73.7,37.93l-5.2,8.19,1.69-.69a53,53,0,0,0-20.41,0l1.69.69-3.84-6.07c-.24-.38-.59-1.29-.95-1.5-.9-.51.8-1.46-.35.82.37-.72.89-1.41,1.32-2.09l4.55-7.18c.48-.76,1-1.52,1.47-2.32-.47.88-1.64.33.33.57a71.17,71.17,0,0,0,8.4,0,19.86,19.86,0,0,0,3.89,0c1.74-.39.4.12.08-.47,2.17,4,4.9,7.73,7.33,11.56,1,1.63,3.63.12,2.59-1.51-2.29-3.62-4.34-7.66-7-11-2.09-2.66-6.1-1.56-9.31-1.56-3,0-7.12-1.05-9.18,1.34C48,29.95,46,34.3,43.7,37.93a1.49,1.49,0,0,0,0,1.51l5.19,8.19a1.56,1.56,0,0,0,1.69.69,48.84,48.84,0,0,1,18.81,0,1.56,1.56,0,0,0,1.69-.69l5.2-8.19C77.33,37.81,74.74,36.3,73.7,37.93Z"/></svg>