<svg id="Layer_1" data-name="Layer 1" xmlns="http://www.w3.org/2000/svg" viewBox="0 0 160 160"><defs><style>.cls-1{fill:#fff;}</style></defs><title>white-trivia</title><path class="cls-1" d="M74.94,31.4c.79,3.56.23,7.69.23,11.31V120.3q0,3.44,0,6.89a8.83,8.83,0,0,1,0,1.06c-.14,1.14.06,1.27-.67,2.12-2.49,2.92-7.29.88-9.42-1.33a1.54,1.54,0,0,0-1.82-.23c-7.08,3.46-14.22-3-12-10.41a1.53,1.53,0,0,0-1-1.85c-4.78-1.62-6.74-6-5.4-10.68a1.52,1.52,0,0,0-1-1.85,12.72,12.72,0,0,1-3.67-23A1.53,1.53,0,0,0,40.6,79c-3.27-5.22-2.36-11.28,2.64-15a1.52,1.52,0,0,0,.54-2.05c-3.18-4.16-3.61-15.28,4-15.42a1.52,1.52,0,0,0,1.45-1.1c.86-5.57,4.83-9.21,10.76-6.7.77.33,2,.17,2.2-.9.54-3.74,3.22-9.91,8-9.54a5.79,5.79,0,0,1,4.85,3.55c.79,1.76,3.38.23,2.59-1.51-5-11.07-17.08-2-18.33,6.71l2.2-.9c-7.38-3.12-14,.59-15.17,8.49l1.45-1.1c-9.9.17-11.39,13.72-6.63,19.93l.54-2.05C35.47,66,33.8,73.75,38,80.48l.54-2.05a15.78,15.78,0,0,0,4.39,28.5l-1-1.85c-1.84,6.44,1.15,12.22,7.49,14.37l-1-1.85A11.59,11.59,0,0,0,64.77,131.4L63,131.16a10.93,10.93,0,0,0,6.61,3.57c2.47.3,6.79-.9,8.16-3.27.72-1.26.45-2.83.45-4.27q0-9.33,0-18.66V46.9c0-5.22.81-11.15-.34-16.3C77.41,28.72,74.52,29.52,74.94,31.4Z"/><path class="cls-1" d="M56.65,79.36a6.88,6.88,0,0,1,9.58,0c1.42,1.31,3.54-.81,2.12-2.12a10,10,0,0,0-13.82,0c-1.42,1.31.7,3.43,2.12,2.12Z"/><path class="cls-1" d="M52.09,58.17a3.66,3.66,0,0,1,5.09,0c1.42,1.31,3.54-.81,2.12-2.12a6.74,6.74,0,0,0-9.34,0c-1.42,1.31.7,3.43,2.12,2.12Z"/><path class="cls-1" d="M48.09,73.17a3.66,3.66,0,0,1,5.09,0c1.42,1.31,3.54-.81,2.12-2.12a6.74,6.74,0,0,0-9.34,0c-1.42,1.31.7,3.43,2.12,2.12Z"/><path class="cls-1" d="M62.81,48.8a3.85,3.85,0,0,1,5.37,0c1.42,1.31,3.54-.81,2.12-2.12a6.93,6.93,0,0,0-9.61,0c-1.42,1.31.7,3.43,2.12,2.12Z"/><path class="cls-1" d="M49.78,95.49a4.87,4.87,0,0,1,6.79,0c1.42,1.31,3.54-.81,2.12-2.12a8,8,0,0,0-11,0c-1.42,1.31.7,3.43,2.12,2.12Z"/><path class="cls-1" d="M57.5,112.91a6.49,6.49,0,0,1,9,0c1.42,1.31,3.54-.81,2.12-2.12a9.57,9.57,0,0,0-13.27,0c-1.42,1.31.7,3.43,2.12,2.12Z"/><path class="cls-1" d="M84.38,30.6c-.93,4.17-.34,8.86-.34,13.1v82.19c0,1.28-.4,3.8.06,4.9.91,2.15,4.63,3.79,6.78,4,3.26.29,6.18-1.34,8.37-3.61l-1.82.23a11.59,11.59,0,0,0,16.44-13.79l-1,1.85c6.35-2.15,9.33-7.93,7.49-14.37l-1,1.85a15.78,15.78,0,0,0,4.39-28.5l.54,2.05c4.22-6.73,2.53-14.45-3.72-19.15l.54,2.05c4.76-6.21,3.27-19.76-6.63-19.93l1.45,1.1c-1.21-7.9-7.79-11.61-15.17-8.49l2.2.9c-1.25-8.72-13.32-17.79-18.33-6.71-.79,1.75,1.8,3.27,2.59,1.51A5.79,5.79,0,0,1,92,28.21c4.77-.37,7.46,5.8,8,9.54.15,1.07,1.43,1.22,2.2.9,5.94-2.51,9.91,1.13,10.76,6.7a1.51,1.51,0,0,0,1.45,1.1c7.64.13,7.22,11.27,4,15.42a1.53,1.53,0,0,0,.54,2.05c5,3.77,5.92,9.82,2.64,15a1.53,1.53,0,0,0,.54,2.05,12.72,12.72,0,0,1-3.67,23,1.52,1.52,0,0,0-1,1.85c1.35,4.75-.69,9.09-5.4,10.68a1.53,1.53,0,0,0-1,1.85c2.2,7.46-5,13.85-12,10.41a1.55,1.55,0,0,0-1.82.23c-2.24,2.33-4.79,3.1-7.75,2.15-2.08-.66-2-1-2.35-2.6a5.41,5.41,0,0,1,0-1q0-2.56,0-5.12v-77c0-4.47-.75-9.66.23-14C87.69,29.52,84.8,28.72,84.38,30.6Z"/><path class="cls-1" d="M107.68,77.24a10,10,0,0,0-13.82,0c-1.42,1.31.7,3.43,2.12,2.12a6.88,6.88,0,0,1,9.58,0c1.42,1.31,3.54-.81,2.12-2.12Z"/><path class="cls-1" d="M112.24,56.05a6.74,6.74,0,0,0-9.34,0c-1.42,1.31.7,3.43,2.12,2.12a3.66,3.66,0,0,1,5.09,0c1.42,1.31,3.54-.81,2.12-2.12Z"/><path class="cls-1" d="M116.24,71.05a6.74,6.74,0,0,0-9.34,0c-1.42,1.31.7,3.43,2.12,2.12a3.66,3.66,0,0,1,5.09,0c1.42,1.31,3.54-.81,2.12-2.12Z"/><path class="cls-1" d="M101.52,46.68a6.93,6.93,0,0,0-9.61,0c-1.42,1.31.7,3.43,2.12,2.12a3.85,3.85,0,0,1,5.37,0c1.42,1.31,3.54-.81,2.12-2.12Z"/><path class="cls-1" d="M114.55,93.37a8,8,0,0,0-11,0c-1.42,1.31.7,3.43,2.12,2.12a4.87,4.87,0,0,1,6.79,0c1.42,1.31,3.54-.81,2.12-2.12Z"/><path class="cls-1" d="M106.83,110.79a9.57,9.57,0,0,0-13.27,0c-1.42,1.31.7,3.43,2.12,2.12a6.49,6.49,0,0,1,9,0c1.42,1.31,3.54-.81,2.12-2.12Z"/></svg>