<svg id="Layer_1" data-name="Layer 1" xmlns="http://www.w3.org/2000/svg" viewBox="0 0 160 160"><defs><style>.cls-1{fill:#fff;}</style></defs><title>white-dj</title><path class="cls-1" d="M125.31,101.16a50,50,0,1,1-24.15-66.46A50.06,50.06,0,0,1,125.31,101.16ZM38,60.37A46.39,46.39,0,1,0,99.63,38,46.44,46.44,0,0,0,38,60.37Z"/><path class="cls-1" d="M98,88.41A19.88,19.88,0,1,1,88.41,62,19.9,19.9,0,0,1,98,88.41ZM65.26,73.12a16.27,16.27,0,1,0,21.62-7.86A16.28,16.28,0,0,0,65.26,73.12Z"/><path class="cls-1" d="M84.37,82A4.82,4.82,0,1,1,82,75.63,4.82,4.82,0,0,1,84.37,82Zm-5.46-2.55a1.2,1.2,0,1,0,1.6-.58A1.21,1.21,0,0,0,78.91,79.49Z"/><path class="cls-1" d="M41.39,81.38A47.42,47.42,0,0,1,56.27,49.51c1.68-1.61-1.09-3.94-2.75-2.35A50.42,50.42,0,0,0,37.82,80.78c-.15,2.3,3.41,2.93,3.56.6Z"/><path class="cls-1" d="M49.39,78.47a31.33,31.33,0,0,1,9.78-21c1.68-1.62-1.09-3.95-2.75-2.35a34.36,34.36,0,0,0-10.6,22.69c-.16,2.3,3.4,2.93,3.56.6Z"/><path class="cls-1" d="M56.1,78.39a23.24,23.24,0,0,1,7.53-15.46c1.7-1.59-1.07-3.92-2.75-2.35a26.28,26.28,0,0,0-8.34,17.2c-.2,2.3,3.36,2.93,3.56.6Z"/><path class="cls-1" d="M99.39,99.55a26.16,26.16,0,0,0,8-17.24c.16-2.3-3.4-2.93-3.56-.6a23.12,23.12,0,0,1-7.23,15.49c-1.68,1.62,1.09,3.95,2.75,2.35Z"/><path class="cls-1" d="M103.58,104.83a34.36,34.36,0,0,0,10.6-22.69c.16-2.3-3.4-2.93-3.56-.6a31.33,31.33,0,0,1-9.78,21c-1.68,1.62,1.09,3.95,2.75,2.35Z"/><path class="cls-1" d="M106.49,112.81a50.51,50.51,0,0,0,16-33.55c.17-2.3-3.39-2.93-3.56-.6a47.51,47.51,0,0,1-15.16,31.81c-1.69,1.59,1.08,3.92,2.75,2.35Z"/></svg>