<svg id="Layer_1" data-name="Layer 1" xmlns="http://www.w3.org/2000/svg" viewBox="0 0 160 160"><defs><style>.cls-1{fill:none;stroke:#fff;stroke-miterlimit:10;stroke-width:3px;}.cls-2{fill:#fff;}</style></defs><title>white-casino</title><rect class="cls-1" x="42.48" y="30" width="75" height="100" rx="5" ry="5"/><path class="cls-2" d="M60.56,50.93l-.67-1.76h-5.7L53.52,51a6.29,6.29,0,0,1-.67,1.42,1.06,1.06,0,0,1-.91.37,1.33,1.33,0,0,1-.95-.39,1.2,1.2,0,0,1-.41-.89,2,2,0,0,1,.1-.59q.1-.31.32-.85l3.58-9.1L55,40a4.76,4.76,0,0,1,.46-.91,1.86,1.86,0,0,1,.64-.59,2,2,0,0,1,1-.22,2,2,0,0,1,1,.22,1.9,1.9,0,0,1,.64.58,4.06,4.06,0,0,1,.41.76q.17.41.43,1.08l3.66,9a4.55,4.55,0,0,1,.43,1.5,1.24,1.24,0,0,1-.41.89,1.34,1.34,0,0,1-1,.41,1.27,1.27,0,0,1-.57-.12,1.17,1.17,0,0,1-.4-.33,3,3,0,0,1-.35-.63ZM54.94,47h4.19L57,41.26Z"/><path class="cls-2" d="M106.39,108.12a3,3,0,0,1,.35-.63,1.17,1.17,0,0,1,.4-.33,1.27,1.27,0,0,1,.57-.12,1.34,1.34,0,0,1,1,.41,1.24,1.24,0,0,1,.41.89,4.55,4.55,0,0,1-.43,1.5l-3.66,9q-.26.68-.43,1.08a4.06,4.06,0,0,1-.41.76,1.9,1.9,0,0,1-.64.58,2,2,0,0,1-1,.22,2,2,0,0,1-1-.22,1.86,1.86,0,0,1-.64-.59,4.76,4.76,0,0,1-.46-.91l-.37-.94-3.58-9.1q-.22-.54-.32-.85a2,2,0,0,1-.1-.59,1.2,1.2,0,0,1,.41-.89,1.33,1.33,0,0,1,.95-.39,1.06,1.06,0,0,1,.91.37,6.29,6.29,0,0,1,.67,1.42l.67,1.8h5.7l.67-1.76Zm-3.87,10.42,2.11-5.78h-4.19Z"/><path class="cls-2" d="M92.84,78A10.65,10.65,0,0,1,94.6,84.6a7.54,7.54,0,0,1-10.06,6.15,6.64,6.64,0,0,1-1.63-1.17,20.36,20.36,0,0,0,2.28,5l.61,1.08A.92.92,0,0,1,85,97c-1.52.07-3.13.1-5.1.1-1.48,0-3,0-4.5,0h-1a.94.94,0,0,1-.75-.39.93.93,0,0,1-.12-.83,5.81,5.81,0,0,1,.65-1.25c.08-.12.15-.23.22-.36l.13-.23c.21-.38.43-.76.62-1.18l.2-.44a15.33,15.33,0,0,0,1-2.69l0-.12A5.21,5.21,0,0,1,73,91.26a10.12,10.12,0,0,1-4.46-.83c-2.33-1.07-3.62-3.14-3.84-6.17a9.65,9.65,0,0,1,.62-4,29.36,29.36,0,0,1,2.87-5.19c.53-.8,1.1-1.57,1.65-2.32.28-.38,2.65-3.5,3-3.95a64,64,0,0,0,4.79-7.21l1.08-1.79a.92.92,0,0,1,.79-.44h0a.93.93,0,0,1,.79.44c.78,1.27,1.6,2.5,2.46,3.81l1,1.46c1.17,1.79,2.51,3.52,3.81,5.2a60.65,60.65,0,0,1,5.27,7.58Z"/><path class="cls-2" d="M145,58.93l-21.48,37.2,2.8.76V41.51l-2.26,1.3L134.75,49c3.52,2,12.31,5,10.13,10.32-.73,1.78,2.17,2.56,2.89.8,2.64-6.42-3.34-9-7.87-11.61l-14.3-8.26a1.51,1.51,0,0,0-2.26,1.3V96.88a1.51,1.51,0,0,0,2.8.76l21.48-37.2A1.5,1.5,0,0,0,145,58.93Z"/><path class="cls-2" d="M33.34,41.51V96.88l2.8-.76L17.39,63.66A33.3,33.3,0,0,1,14.72,59c-1.48-4,2.06-5.36,4.79-6.94L35.6,42.81a1.5,1.5,0,0,0-1.51-2.59L16.48,50.38c-5.11,2.95-6.24,6.9-3.29,12L33.55,97.64a1.51,1.51,0,0,0,2.8-.76V41.51A1.5,1.5,0,0,0,33.34,41.51Z"/></svg>