<svg id="Layer_1" data-name="Layer 1" xmlns="http://www.w3.org/2000/svg" viewBox="0 0 160 160"><defs><style>.cls-1{fill:none;stroke:#fff;stroke-miterlimit:10;stroke-width:3px;}</style></defs><title>white-corporate</title><path class="cls-1" d="M87.84,52.92H72.16a3,3,0,0,1-2.85-2.05l-8-24a3,3,0,0,1,2.85-3.95H95.84a3,3,0,0,1,2.85,3.95l-8,24A3,3,0,0,1,87.84,52.92Z"/><path class="cls-1" d="M92.7,118.8,81.54,136.23a1.83,1.83,0,0,1-1.54.84h0a1.83,1.83,0,0,1-1.54-.84L67.3,118.8a1.83,1.83,0,0,1-.29-1l1.5-56.29a3,3,0,0,1,3-2.92h17a3,3,0,0,1,3,2.92L93,117.76A1.83,1.83,0,0,1,92.7,118.8Z"/></svg>