<svg id="Layer_1" data-name="Layer 1" xmlns="http://www.w3.org/2000/svg" viewBox="0 0 160 160"><defs><style>.cls-1{fill:#fff;}</style></defs><title>white-parties</title><path class="cls-1" d="M111.44,87.8H48.65l1.5,1.5c-.39-6.1.23-15,6.11-18.39a1.53,1.53,0,0,0,.69-1.69,24.72,24.72,0,0,1-.64-7.83c.44-4,5.09-4.31,8.14-6a1.52,1.52,0,0,0,.69-1.69,22.16,22.16,0,0,1-.6-7.24c.35-5.69,5.67-6.22,10-7.8,4.11-1.49,3.31-6.24,2.24-9.82l-2.51,1.46c2.45,2.45,5.14,6.43,8.2,8,2.08,1.09,5,.86,7.24,2S94,43,94.34,45.68a22.31,22.31,0,0,1-.62,8.05,1.52,1.52,0,0,0,.69,1.69c3,1.65,7.71,2,8.14,6a24.71,24.71,0,0,1-.64,7.83,1.54,1.54,0,0,0,.69,1.69c5.91,3.36,7.25,12.13,7.34,18.39a1.5,1.5,0,0,0,3,0c-.1-7.36-1.89-17-8.83-21L104.8,70c.78-3.18,1.48-8,.42-11.21-1.26-3.73-6.3-4.35-9.29-6l.69,1.69c1.84-5.83,1.37-12.81-4.2-16.16-3.25-2-7.36-1.51-9.9-4l-6.11-6.11a1.51,1.51,0,0,0-2.51,1.46A11.08,11.08,0,0,1,74.63,33c-.13,3.16-3.16,3.18-5.51,4.12s-5,2.45-6.49,4.76c-2,3.17-1.44,9.27-.37,12.65l.69-1.69c-3,1.65-8,2.23-9.29,6-1.1,3.11-.35,8.09.42,11.22l.69-1.69c-6.9,3.95-8.06,13.75-7.59,21a1.53,1.53,0,0,0,1.5,1.5h62.78A1.5,1.5,0,0,0,111.44,87.8Z"/><path class="cls-1" d="M101.95,129.2h-43l1.45,1.1-9-32-1.45,1.9h60l-1.45-1.9-8,32c-.47,1.87,2.42,2.67,2.89.8l8-32a1.52,1.52,0,0,0-1.45-1.9h-60a1.52,1.52,0,0,0-1.45,1.9l9,32a1.53,1.53,0,0,0,1.45,1.1h43A1.5,1.5,0,0,0,101.95,129.2Z"/></svg>