<svg id="Layer_1" data-name="Layer 1" xmlns="http://www.w3.org/2000/svg" viewBox="0 0 160 160"><defs><style>.cls-1{fill:#fff;}</style></defs><title>white-reunions</title><path class="cls-1" d="M100.83,57.3a20.86,20.86,0,0,1-41.71,0C59,46.21,68.34,37,79.3,36.67A21,21,0,0,1,100.83,57.3c.06,1.93,3.06,1.93,3,0-.66-21.7-28.35-32-42.41-14.84C47.84,59.08,62.84,84,83.74,80.64a24,24,0,0,0,20.1-23.34C103.89,55.37,100.89,55.37,100.83,57.3Z"/><path class="cls-1" d="M100.48,82.35l-4.57,27.14c-.59,3.5-.47,8.89-2,12.1-1.24,2.54-6.52,1.38-9.1,1.38-5.29,0-10.95.58-16.21,0-3.23-.36-2.74-3.14-3.24-6.09L60,85c-.34-2-.93-2.75,1.35-3.29,2-.47,3.33.59,5,1.46a28.53,28.53,0,0,0,7.36,2.66,30,30,0,0,0,15.15-.63c1.46-.46,11.15-6.1,11.63-2.42.24,1.89,3.25,1.91,3,0-1.21-9.4-14.68-.39-18.68.33a27,27,0,0,1-11.12-.35c-3.13-.77-5.69-3-8.62-3.85-1.82-.55-5.39-.65-7,.6-2.75,2.13-.67,7.73-.21,10.46l3.5,20.81c.64,3.79.68,8.66,2.06,12.27,1.63,4.26,7.31,3,11,3,5.93,0,12,.45,18,0,4.07-.31,4.39-3,5-6.37l6.13-36.45C103.69,81.26,100.8,80.45,100.48,82.35Z"/><path class="cls-1" d="M138,67.79a15,15,0,1,1-15-14.68,15,15,0,0,1,15,14.68c.08,1.92,3.08,1.93,3,0a18,18,0,0,0-36,0c0,9.75,8.34,17.68,18,17.68a18.1,18.1,0,0,0,18-17.68C141.08,65.86,138.08,65.87,138,67.79Z"/><path class="cls-1" d="M137.75,88l-3.36,19.8c-.35,2.08-.24,7.25-1.52,9-1.09,1.44-5.53.62-7.38.62H118.7c-1.16,0-3.67.52-4.7,0-1.47-.74-1.33-3.63-1.62-5.36L110.2,99.18c-.46-2.74-2.27-7.46-1.73-10.19.25-1.25.78-1.48,2.63-1,3,.82,5.42,2.81,8.76,3.28a22.53,22.53,0,0,0,10.49-1c.62-.21,7.11-3.8,7.36-1.91s3.25,1.91,3,0c-.62-4.75-5.67-3.63-8.74-2a19.61,19.61,0,0,1-17.2.35c-2.3-1.08-3.62-2.17-6.28-1.69-3.32.59-3.2,3-2.75,5.68q1.23,7.3,2.48,14.6c.67,3.94.86,8.44,2.08,12.26,1,3,3.26,2.82,6,2.82,5,0,10.12.29,15.13,0,2.89-.17,3.92-1.12,4.57-3.87,2.14-9.06,3.15-18.53,4.71-27.71C141,86.9,138.07,86.09,137.75,88Z"/><path class="cls-1" d="M52,67.79A15,15,0,1,1,37,53.11,15,15,0,0,1,52,67.79c.08,1.92,3.08,1.93,3,0a18,18,0,0,0-36,0c0,9.75,8.34,17.68,18,17.68A18.1,18.1,0,0,0,55,67.79C55.07,65.86,52.07,65.87,52,67.79Z"/><path class="cls-1" d="M51.74,88l-3.36,19.8c-.35,2.08-.24,7.25-1.52,9-1.09,1.44-5.53.62-7.38.62H32.68c-1.16,0-3.67.52-4.7,0-1.47-.74-1.33-3.63-1.62-5.36L24.18,99.18c-.46-2.74-2.27-7.46-1.73-10.19.25-1.25.78-1.48,2.63-1,3,.82,5.42,2.81,8.76,3.28a22.53,22.53,0,0,0,10.49-1c.62-.21,7.11-3.8,7.36-1.91s3.25,1.91,3,0c-.62-4.75-5.67-3.63-8.74-2a19.61,19.61,0,0,1-17.2.35c-2.3-1.08-3.62-2.17-6.28-1.69-3.32.59-3.2,3-2.75,5.68q1.23,7.3,2.48,14.6c.67,3.94.86,8.44,2.08,12.26,1,3,3.26,2.82,6,2.82,5,0,10.12.29,15.13,0,2.89-.17,3.92-1.12,4.57-3.87,2.14-9.06,3.15-18.53,4.71-27.71C54.95,86.9,52.06,86.09,51.74,88Z"/></svg>